<svg width="11" height="16" viewBox="0 0 11 16" fill="none" xmlns="http://www.w3.org/2000/svg">
<path d="M8.98047 1C9.24569 1 9.50004 1.10536 9.68758 1.29289C9.87511 1.48043 9.98047 1.73478 9.98047 2V14C9.98047 14.2652 9.87511 14.5196 9.68758 14.7071C9.50004 14.8946 9.24569 15 8.98047 15H2.98047C2.71525 15 2.4609 14.8946 2.27336 14.7071C2.08583 14.5196 1.98047 14.2652 1.98047 14V2C1.98047 1.73478 2.08583 1.48043 2.27336 1.29289C2.4609 1.10536 2.71525 1 2.98047 1H8.98047ZM2.98047 0C2.45004 0 1.94133 0.210714 1.56626 0.585786C1.19118 0.960859 0.980469 1.46957 0.980469 2V14C0.980469 14.5304 1.19118 15.0391 1.56626 15.4142C1.94133 15.7893 2.45004 16 2.98047 16H8.98047C9.5109 16 10.0196 15.7893 10.3947 15.4142C10.7698 15.0391 10.9805 14.5304 10.9805 14V2C10.9805 1.46957 10.7698 0.960859 10.3947 0.585786C10.0196 0.210714 9.5109 0 8.98047 0L2.98047 0Z" fill="#1E3A3D"/>
<path d="M5.98047 14C6.24569 14 6.50004 13.8946 6.68758 13.7071C6.87511 13.5196 6.98047 13.2652 6.98047 13C6.98047 12.7348 6.87511 12.4804 6.68758 12.2929C6.50004 12.1054 6.24569 12 5.98047 12C5.71525 12 5.4609 12.1054 5.27336 12.2929C5.08583 12.4804 4.98047 12.7348 4.98047 13C4.98047 13.2652 5.08583 13.5196 5.27336 13.7071C5.4609 13.8946 5.71525 14 5.98047 14Z" fill="#1E3A3D"/>
</svg>
