<svg width="14" height="16" viewBox="0 0 14 16" fill="none" xmlns="http://www.w3.org/2000/svg">
<path fill-rule="evenodd" clip-rule="evenodd" d="M6.97638 9.00011C7.50699 9.00011 8.01587 8.7894 8.39115 8.4143C8.76644 8.0392 8.97741 7.53042 8.97767 6.99982C8.97767 6.46905 8.76682 5.96001 8.39151 5.5847C8.01619 5.20938 7.50716 4.99854 6.97638 4.99854C6.44561 4.99854 5.93657 5.20938 5.56126 5.5847C5.18595 5.96001 4.9751 6.46905 4.9751 6.99982C4.97536 7.53042 5.18633 8.0392 5.56161 8.4143C5.9369 8.7894 6.44578 9.00011 6.97638 9.00011Z" stroke="#1E3A3D" stroke-linecap="square"/>
<path fill-rule="evenodd" clip-rule="evenodd" d="M12.9804 6.99986C12.9804 12.0001 7.97716 15 6.97652 15C5.97587 15 0.972656 12.0001 0.972656 6.99986C0.973452 5.40815 1.60638 3.88192 2.73227 2.75678C3.85815 1.63165 5.38481 0.999735 6.97652 1C10.2916 1 12.9804 3.68673 12.9804 6.99986Z" stroke="#1E3A3D" stroke-linecap="square"/>
</svg>
