<svg width="16" height="15" viewBox="0 0 16 15" fill="none" xmlns="http://www.w3.org/2000/svg">
<path d="M7.15051 0.482706C7.42148 -0.160903 8.34438 -0.160902 8.61535 0.482708L10.2146 4.2814C10.3289 4.55274 10.5872 4.73812 10.8837 4.76161L15.0349 5.09039C15.7382 5.14609 16.0234 6.01321 15.4875 6.46668L12.3248 9.14315C12.0989 9.33436 12.0002 9.63435 12.0692 9.92015L13.0355 13.922C13.1992 14.6001 12.4526 15.136 11.8504 14.7727L8.29642 12.6281C8.04256 12.4749 7.7233 12.4749 7.46946 12.6281L3.91544 14.7727C3.31328 15.136 2.56665 14.6001 2.73036 13.922L3.69664 9.92015C3.76566 9.63435 3.667 9.33436 3.4411 9.14315L0.278317 6.46668C-0.257549 6.01321 0.0276438 5.14609 0.730977 5.09039L4.88218 4.76161C5.17869 4.73812 5.43698 4.55274 5.55121 4.2814L7.15051 0.482706Z" fill="#5E7567"/>
</svg>
