<svg width="32" height="32" viewBox="0 0 32 32" fill="none" xmlns="http://www.w3.org/2000/svg">
<rect width="32" height="32" rx="4" fill="#1E3A3D"/>
<path d="M29.0824 13.8142L28.1354 13.7996C27.1557 12.1297 25.2973 11 23.1704 11C20.9074 11 18.9482 12.2788 18.0282 14.1265C17.5363 13.8262 16.8395 13.542 15.9807 13.5642C15.1185 13.5865 14.4388 13.9073 13.9814 14.2144C13.0803 12.3195 11.0952 11 8.7965 11C6.66401 11 4.80163 12.1356 3.82395 13.8127L2.94721 13.7992C2.43306 13.7912 2.00833 14.1875 2.00012 14.6843C1.99192 15.181 2.40267 15.5901 2.91752 15.5979L3.172 15.6018C3.12203 15.8942 3.0956 16.1942 3.0956 16.5C3.0956 19.5327 5.65306 22 8.7966 22C11.9401 22 14.4976 19.5327 14.4976 16.5C14.4976 16.1834 14.4693 15.8732 14.4159 15.5711L14.4404 15.5946C14.644 15.3967 15.2052 14.934 16.0183 14.9129C16.736 14.8942 17.2803 15.2327 17.5704 15.4688C17.5045 15.8029 17.4695 16.1476 17.4695 16.5C17.4695 19.5327 20.027 22 23.1705 22C26.314 22 28.8715 19.5327 28.8715 16.5C28.8715 16.1966 28.8455 15.8991 28.7963 15.6089L29.0528 15.6129C29.0579 15.613 29.0629 15.613 29.0679 15.613C29.5759 15.613 29.9918 15.2197 29.9999 14.7278C30.008 14.2311 29.5973 13.8221 29.0824 13.8142ZM8.79655 20.6508C6.42416 20.6508 4.49409 18.7887 4.49409 16.5C4.49409 16.0051 4.58448 15.5302 4.74993 15.0897C4.76787 15.0522 4.78312 15.0133 4.79561 14.9733C5.42738 13.4378 6.9826 12.3492 8.7965 12.3492C11.1689 12.3492 13.099 14.2112 13.099 16.5C13.099 18.7887 11.1689 20.6508 8.79655 20.6508ZM23.1704 20.6508C20.7981 20.6508 18.868 18.7887 18.868 16.5C18.868 14.2112 20.7981 12.3492 23.1704 12.3492C25.5428 12.3492 27.4729 14.2112 27.4729 16.5C27.4729 18.7887 25.5428 20.6508 23.1704 20.6508Z" fill="#C39D60"/>
</svg>
