<svg width="152" height="152" viewBox="0 0 152 152" fill="none" xmlns="http://www.w3.org/2000/svg">
<rect width="152" height="152" rx="12" fill="#1E3A3D"/>
<path d="M44.8002 83.8239C44.8002 84.0005 44.7561 84.0888 44.6678 84.0888C43.7846 84.0888 43.1001 84.0888 42.5923 84.0447L39.6778 84.0005L36.9621 84.0447C36.5205 84.0668 35.8802 84.0888 35.0632 84.0888C34.2463 84.0888 34.9749 84.0005 34.9749 83.8239C34.9749 83.6473 34.997 83.5589 35.0632 83.5589C36.0126 83.5589 36.7413 83.4706 37.2049 83.3161C37.6686 83.1615 37.9777 82.8966 38.1323 82.4991C38.2868 82.1017 38.331 81.4835 38.2868 80.6445L37.514 61.3913L27.8654 83.7797C27.7991 83.8901 27.6887 83.9564 27.5342 83.9564C27.3796 83.9564 27.2692 83.8901 27.1588 83.7797L16.7153 61.6341L16.3399 79.4522C16.3179 80.9536 16.5607 82.0134 17.1127 82.6316C17.6426 83.2498 18.592 83.5589 19.9389 83.5589C21.2857 83.5589 20.0272 83.6473 20.0272 83.8239C20.0272 84.0005 20.0051 84.0888 19.9389 84.0888C19.144 84.0888 18.5479 84.0888 18.1284 84.0447L15.8321 84.0005L13.6242 84.0447C13.2268 84.0668 12.6748 84.0888 11.9241 84.0888C11.1734 84.0888 11.8358 84.0005 11.8358 83.8239C11.8358 83.6473 11.8578 83.5589 11.9241 83.5589C13.1164 83.5589 13.9554 83.2498 14.4853 82.6095C15.0152 81.9692 15.2801 80.9315 15.3022 79.4522L15.6776 59.8015C14.8606 58.6976 13.7125 58.1235 12.2332 58.1235C10.7539 58.1235 12.1449 58.0352 12.1449 57.8586C12.1449 57.6819 12.1669 57.5936 12.2332 57.5936L13.8008 57.6378C14.0878 57.6599 14.4853 57.6819 14.9931 57.6819C15.5009 57.6819 15.9204 57.6819 16.2737 57.6378C16.627 57.6157 16.8919 57.5936 17.0906 57.5936C17.466 57.5936 17.753 57.7261 17.9959 57.991C18.2388 58.256 18.592 58.8521 19.0336 59.7795L28.4836 79.673L37.7128 58.6755C38.0219 57.969 38.4414 57.6157 38.9934 57.6157C39.5453 57.6157 39.3466 57.6157 39.6116 57.6599C39.8765 57.6819 40.2298 57.704 40.6935 57.704L42.6806 57.6599C42.9897 57.6378 43.4534 57.6157 44.0716 57.6157C44.6898 57.6157 44.2041 57.704 44.2041 57.8806C44.2041 58.0573 44.1599 58.1456 44.0716 58.1456C42.6585 58.1456 41.6429 58.3443 41.0467 58.7638C40.4285 59.1833 40.1415 59.934 40.1856 61.0601L41.0247 80.6665C41.0467 81.5497 41.1571 82.1679 41.3338 82.5654C41.5104 82.9628 41.8416 83.2277 42.3273 83.3602C42.8131 83.4927 43.5859 83.581 44.6457 83.581C45.7055 83.581 44.7782 83.6693 44.7782 83.846L44.8002 83.8239Z" fill="url(#paint0_linear_4328_3468)"/>
<path d="M54.1618 82.742C52.1085 81.5055 50.5408 79.8496 49.4148 77.752C48.2887 75.6545 47.7368 73.3583 47.7368 70.8633C47.7368 68.3683 48.4654 65.4759 49.9447 63.4005C51.4019 61.325 53.3008 59.7574 55.597 58.7196C57.8933 57.6819 60.2558 57.152 62.6403 57.152C65.0249 57.152 67.6744 57.7702 69.7057 59.0288C71.737 60.2873 73.3047 61.9432 74.3865 63.9966C75.4684 66.05 76.0204 68.2358 76.0204 70.5542C76.0204 72.8725 75.3359 75.4779 73.9891 77.6196C72.6423 79.7613 70.8097 81.4614 68.5576 82.6978C66.2834 83.9343 63.8326 84.5525 61.161 84.5525C58.4894 84.5525 56.1931 83.9343 54.1618 82.7199V82.742ZM67.829 82.3004C69.3745 81.3731 70.5889 80.0041 71.4721 78.1936C72.3552 76.3831 72.7968 74.2414 72.7968 71.7685C72.7968 69.2957 72.3111 66.7565 71.3175 64.7031C70.3239 62.6498 68.9329 61.038 67.1445 59.8678C65.3561 58.7196 63.2585 58.1235 60.8519 58.1235C58.4452 58.1235 55.31 59.1171 53.5657 61.1263C51.8214 63.1355 50.9383 65.8734 50.9383 69.384C50.9383 72.8946 51.424 74.4622 52.4176 76.6481C53.4111 78.8339 54.7801 80.5561 56.5685 81.8146C58.3569 83.0732 60.3661 83.6914 62.6182 83.6914C64.8703 83.6914 66.2613 83.2277 67.8069 82.3004H67.829Z" fill="url(#paint1_linear_4328_3468)"/>
<path d="M86.5964 82.742C84.543 81.5055 82.9754 79.8496 81.8494 77.752C80.7233 75.6545 80.1713 73.3583 80.1713 70.8633C80.1713 68.3683 80.8999 65.4759 82.3793 63.4005C83.8365 61.325 85.7353 59.7574 88.0316 58.7196C90.3278 57.6819 92.6903 57.152 95.0749 57.152C97.4595 57.152 100.109 57.7702 102.14 59.0288C104.172 60.2873 105.739 61.9432 106.821 63.9966C107.903 66.05 108.455 68.2358 108.455 70.5542C108.455 72.8725 107.771 75.4779 106.424 77.6196C105.077 79.7613 103.266 81.4614 100.992 82.6978C98.718 83.9343 96.2672 84.5525 93.5956 84.5525C90.924 84.5525 88.6277 83.9343 86.5964 82.7199V82.742ZM100.264 82.3004C101.809 81.3731 103.023 80.0041 103.907 78.1936C104.79 76.3831 105.231 74.2414 105.231 71.7685C105.231 69.2957 104.746 66.7565 103.752 64.7031C102.759 62.6498 101.368 61.038 99.5791 59.8678C97.7906 58.7196 95.6931 58.1235 93.2865 58.1235C90.8798 58.1235 87.7445 59.1171 86.0003 61.1263C84.256 63.1355 83.3728 65.8734 83.3728 69.384C83.3728 72.8946 83.8586 74.4622 84.8522 76.6481C85.8457 78.8339 87.2146 80.5561 89.0031 81.8146C90.7915 83.0732 92.8007 83.6914 95.0528 83.6914C97.3049 83.6914 98.6959 83.2277 100.241 82.3004H100.264Z" fill="url(#paint2_linear_4328_3468)"/>
<path d="M140.448 57.8806C140.448 58.0573 140.404 58.1456 140.316 58.1456C139.123 58.1456 138.262 58.4768 137.732 59.1171C137.202 59.7574 136.937 60.8172 136.937 62.2965V84.5967C136.937 84.6629 136.871 84.685 136.717 84.7291C136.584 84.7512 136.474 84.7291 136.43 84.685L116.956 61.1042L116.58 60.6847V79.4743C116.58 80.9315 116.845 81.9913 117.353 82.6316C117.883 83.2719 118.722 83.581 119.87 83.581C121.018 83.581 120.003 83.6693 120.003 83.846C120.003 84.0226 119.958 84.1109 119.87 84.1109C119.163 84.1109 118.634 84.1109 118.258 84.0668L116.139 84.0226L113.975 84.0668C113.577 84.0888 113.003 84.1109 112.231 84.1109C111.458 84.1109 112.142 84.0226 112.142 83.846C112.142 83.6693 112.164 83.581 112.231 83.581C113.445 83.581 114.306 83.2719 114.814 82.6316C115.322 81.9913 115.565 80.9536 115.565 79.4743V59.647C114.461 58.6313 113.357 58.1235 112.231 58.1235C111.105 58.1235 112.098 58.0352 112.098 57.8586C112.098 57.6819 112.142 57.5936 112.231 57.5936L113.798 57.6378C114.129 57.6599 114.593 57.6819 115.189 57.6819C115.785 57.6819 116.315 57.6819 116.713 57.6378C117.11 57.6157 117.419 57.5936 117.64 57.5936C117.861 57.5936 118.037 57.6378 118.126 57.7482C118.214 57.8365 118.391 58.0573 118.612 58.4105C118.943 58.9184 119.296 59.382 119.627 59.8015L135.922 79.8275V62.2744C135.922 60.8172 135.679 59.7574 135.171 59.095C134.685 58.4547 133.846 58.1235 132.698 58.1235C131.55 58.1235 132.61 58.0352 132.61 57.8586C132.61 57.6819 132.632 57.5936 132.698 57.5936L134.354 57.6378C135.193 57.704 135.9 57.7261 136.43 57.7261C136.959 57.7261 137.644 57.704 138.549 57.6378L140.293 57.5936C140.382 57.5936 140.426 57.6819 140.426 57.8586L140.448 57.8806Z" fill="url(#paint3_linear_4328_3468)"/>
<path d="M47.7587 91.8828C47.7587 90.3594 48.5977 89.432 49.79 89.432C50.9823 89.432 51.8213 90.3594 51.8213 91.8828C51.8213 93.4063 50.9823 94.3778 49.79 94.3778C48.5977 94.3778 47.7587 93.4284 47.7587 91.8828ZM51.2031 91.8828C51.2031 90.6906 50.6511 89.9619 49.79 89.9619C48.9289 89.9619 48.399 90.6906 48.399 91.8828C48.399 93.0751 48.951 93.8479 49.79 93.8479C50.629 93.8479 51.2031 93.0751 51.2031 91.8828Z" fill="url(#paint4_linear_4328_3468)"/>
<path d="M52.8592 89.5201H54.2281C55.2879 89.5201 56.0165 89.8734 56.0165 90.9332C56.0165 91.993 55.2879 92.4125 54.2502 92.4125H53.4774V94.3114H52.8592V89.5422V89.5201ZM54.184 91.9047C55.023 91.9047 55.4204 91.5956 55.4204 90.9332C55.4204 90.2708 55.0009 90.028 54.1619 90.028H53.4774V91.9268H54.184V91.9047Z" fill="url(#paint5_linear_4328_3468)"/>
<path d="M57.9596 90.0504H56.5244V89.5426H60.013V90.0504H58.5778V94.2896H57.9596V90.0504Z" fill="url(#paint6_linear_4328_3468)"/>
<path d="M60.852 89.5201H61.4702V94.2893H60.852V89.5201Z" fill="url(#paint7_linear_4328_3468)"/>
<path d="M62.486 91.9049C62.486 90.3814 63.3912 89.432 64.6056 89.432C65.8199 89.432 65.6433 89.697 65.9303 90.0282L65.5991 90.4035C65.3342 90.1386 65.0251 89.984 64.6277 89.984C63.7445 89.984 63.1483 90.7126 63.1483 91.9049C63.1483 93.0972 63.7224 93.8479 64.6056 93.8479C65.4887 93.8479 65.4004 93.6713 65.7095 93.3401L66.0407 93.6934C65.6654 94.1349 65.2017 94.3778 64.5835 94.3778C63.3912 94.3778 62.508 93.4726 62.508 91.9049H62.486Z" fill="url(#paint8_linear_4328_3468)"/>
<path d="M66.9017 89.5201H67.5199V94.2893H66.9017V89.5201Z" fill="url(#paint9_linear_4328_3468)"/>
<path d="M68.8226 89.5207H71.5605V90.0285H69.4188V91.5079H71.2293V92.0157H69.4188V93.7379H71.6267V94.2457H68.8005V89.4766L68.8226 89.5207Z" fill="url(#paint10_linear_4328_3468)"/>
<path d="M72.6422 89.5201H73.3045L75.0046 92.5009C75.1813 92.81 75.3579 93.1853 75.5125 93.5165H75.5346C75.4904 93.0308 75.4462 92.5008 75.4462 92.0151V89.5201H76.0203V94.2893H75.3579L73.6578 91.3086C73.4812 90.9995 73.3045 90.6241 73.15 90.2929H73.1279C73.1721 90.7787 73.2162 91.2865 73.2162 91.7722V94.2893H72.6422V89.5201Z" fill="url(#paint11_linear_4328_3468)"/>
<path d="M78.7804 89.5201H79.3986V93.7594H81.4741V94.2672H78.7804V89.4981V89.5201Z" fill="url(#paint12_linear_4328_3468)"/>
<path d="M82.2908 92.3242V89.5201H82.9091V92.3242C82.9091 93.4723 83.3948 93.8256 84.013 93.8256C84.6312 93.8256 85.1391 93.4723 85.1391 92.3242V89.5201H85.7352V92.3242C85.7352 93.8477 84.9845 94.3776 84.013 94.3776C83.0415 94.3776 82.2908 93.8477 82.2908 92.3242Z" fill="url(#paint13_linear_4328_3468)"/>
<path d="M87.0158 89.5201H87.6782L89.3783 92.5009C89.5549 92.81 89.7316 93.1853 89.8861 93.5165H89.9082C89.864 93.0308 89.8199 92.5008 89.8199 92.0151V89.5201H90.394V94.2893H89.7316L88.0315 91.3086C87.8548 90.9995 87.6782 90.6241 87.5236 90.2929H87.5016C87.5457 90.7787 87.5899 91.2865 87.5899 91.7722V94.2893H87.0158V89.5201Z" fill="url(#paint14_linear_4328_3468)"/>
<path d="M91.6966 89.5207H94.4345V90.0285H92.2928V91.5079H94.1033V92.0157H92.2928V93.7379H94.5007V94.2457H91.6746V89.4766L91.6966 89.5207Z" fill="url(#paint15_linear_4328_3468)"/>
<path d="M96.51 90.0504H95.0749V89.5426H98.5634V90.0504H97.1283V94.2896H96.51V90.0504Z" fill="url(#paint16_linear_4328_3468)"/>
<path d="M99.4244 89.5201H100.043V94.2893H99.4244V89.5201Z" fill="url(#paint17_linear_4328_3468)"/>
<path d="M101.323 89.5207H104.061V90.0285H101.92V91.5079H103.73V92.0157H101.92V93.7379H104.127V94.2457H101.301V89.4766L101.323 89.5207Z" fill="url(#paint18_linear_4328_3468)"/>
<path d="M105.143 89.5201H106.623C107.594 89.5201 108.301 89.8734 108.301 90.867C108.301 91.8605 107.881 92.0372 107.241 92.2138L108.455 94.2893H107.771L106.623 92.2801H105.762V94.2893H105.143V89.5201ZM106.534 91.7722C107.285 91.7722 107.682 91.4631 107.682 90.867C107.682 90.2708 107.285 90.028 106.534 90.028H105.739V91.7943H106.534V91.7722Z" fill="url(#paint19_linear_4328_3468)"/>
<defs>
<linearGradient id="paint0_linear_4328_3468" x1="12.1276" y1="71.2655" x2="45.1543" y2="71.2086" gradientUnits="userSpaceOnUse">
<stop stop-color="#C8A666"/>
<stop offset="0.522452" stop-color="#B8844F"/>
<stop offset="1" stop-color="#BB9C60"/>
</linearGradient>
<linearGradient id="paint1_linear_4328_3468" x1="48.2212" y1="71.291" x2="76.021" y2="71.252" gradientUnits="userSpaceOnUse">
<stop stop-color="#C8A666"/>
<stop offset="0.522452" stop-color="#B8844F"/>
<stop offset="1" stop-color="#BB9C60"/>
</linearGradient>
<linearGradient id="paint2_linear_4328_3468" x1="80.6558" y1="71.291" x2="108.456" y2="71.252" gradientUnits="userSpaceOnUse">
<stop stop-color="#C8A666"/>
<stop offset="0.522452" stop-color="#B8844F"/>
<stop offset="1" stop-color="#BB9C60"/>
</linearGradient>
<linearGradient id="paint3_linear_4328_3468" x1="112.186" y1="71.6004" x2="140.449" y2="71.5597" gradientUnits="userSpaceOnUse">
<stop stop-color="#C8A666"/>
<stop offset="0.522452" stop-color="#B8844F"/>
<stop offset="1" stop-color="#BB9C60"/>
</linearGradient>
<linearGradient id="paint4_linear_4328_3468" x1="47.8283" y1="91.9841" x2="51.8214" y2="91.9797" gradientUnits="userSpaceOnUse">
<stop stop-color="#C8A666"/>
<stop offset="0.522452" stop-color="#B8844F"/>
<stop offset="1" stop-color="#BB9C60"/>
</linearGradient>
<linearGradient id="paint5_linear_4328_3468" x1="52.9133" y1="91.9925" x2="56.0166" y2="91.9897" gradientUnits="userSpaceOnUse">
<stop stop-color="#C8A666"/>
<stop offset="0.522452" stop-color="#B8844F"/>
<stop offset="1" stop-color="#BB9C60"/>
</linearGradient>
<linearGradient id="paint6_linear_4328_3468" x1="56.5842" y1="91.9921" x2="60.013" y2="91.9887" gradientUnits="userSpaceOnUse">
<stop stop-color="#C8A666"/>
<stop offset="0.522452" stop-color="#B8844F"/>
<stop offset="1" stop-color="#BB9C60"/>
</linearGradient>
<linearGradient id="paint7_linear_4328_3468" x1="60.8626" y1="91.9811" x2="61.4702" y2="91.981" gradientUnits="userSpaceOnUse">
<stop stop-color="#C8A666"/>
<stop offset="0.522452" stop-color="#B8844F"/>
<stop offset="1" stop-color="#BB9C60"/>
</linearGradient>
<linearGradient id="paint8_linear_4328_3468" x1="62.5469" y1="91.9841" x2="66.0408" y2="91.9807" gradientUnits="userSpaceOnUse">
<stop stop-color="#C8A666"/>
<stop offset="0.522452" stop-color="#B8844F"/>
<stop offset="1" stop-color="#BB9C60"/>
</linearGradient>
<linearGradient id="paint9_linear_4328_3468" x1="66.9123" y1="91.9811" x2="67.5199" y2="91.981" gradientUnits="userSpaceOnUse">
<stop stop-color="#C8A666"/>
<stop offset="0.522452" stop-color="#B8844F"/>
<stop offset="1" stop-color="#BB9C60"/>
</linearGradient>
<linearGradient id="paint10_linear_4328_3468" x1="68.8489" y1="91.9375" x2="71.6268" y2="91.9353" gradientUnits="userSpaceOnUse">
<stop stop-color="#C8A666"/>
<stop offset="0.522452" stop-color="#B8844F"/>
<stop offset="1" stop-color="#BB9C60"/>
</linearGradient>
<linearGradient id="paint11_linear_4328_3468" x1="72.7" y1="91.9811" x2="76.0204" y2="91.9779" gradientUnits="userSpaceOnUse">
<stop stop-color="#C8A666"/>
<stop offset="0.522452" stop-color="#B8844F"/>
<stop offset="1" stop-color="#BB9C60"/>
</linearGradient>
<linearGradient id="paint12_linear_4328_3468" x1="78.8265" y1="91.959" x2="81.4741" y2="91.957" gradientUnits="userSpaceOnUse">
<stop stop-color="#C8A666"/>
<stop offset="0.522452" stop-color="#B8844F"/>
<stop offset="1" stop-color="#BB9C60"/>
</linearGradient>
<linearGradient id="paint13_linear_4328_3468" x1="82.3498" y1="92.0267" x2="85.7353" y2="92.0234" gradientUnits="userSpaceOnUse">
<stop stop-color="#C8A666"/>
<stop offset="0.522452" stop-color="#B8844F"/>
<stop offset="1" stop-color="#BB9C60"/>
</linearGradient>
<linearGradient id="paint14_linear_4328_3468" x1="87.0737" y1="91.9811" x2="90.394" y2="91.9779" gradientUnits="userSpaceOnUse">
<stop stop-color="#C8A666"/>
<stop offset="0.522452" stop-color="#B8844F"/>
<stop offset="1" stop-color="#BB9C60"/>
</linearGradient>
<linearGradient id="paint15_linear_4328_3468" x1="91.723" y1="91.9375" x2="94.5008" y2="91.9353" gradientUnits="userSpaceOnUse">
<stop stop-color="#C8A666"/>
<stop offset="0.522452" stop-color="#B8844F"/>
<stop offset="1" stop-color="#BB9C60"/>
</linearGradient>
<linearGradient id="paint16_linear_4328_3468" x1="95.1346" y1="91.9921" x2="98.5635" y2="91.9887" gradientUnits="userSpaceOnUse">
<stop stop-color="#C8A666"/>
<stop offset="0.522452" stop-color="#B8844F"/>
<stop offset="1" stop-color="#BB9C60"/>
</linearGradient>
<linearGradient id="paint17_linear_4328_3468" x1="99.435" y1="91.9811" x2="100.043" y2="91.981" gradientUnits="userSpaceOnUse">
<stop stop-color="#C8A666"/>
<stop offset="0.522452" stop-color="#B8844F"/>
<stop offset="1" stop-color="#BB9C60"/>
</linearGradient>
<linearGradient id="paint18_linear_4328_3468" x1="101.35" y1="91.9375" x2="104.128" y2="91.9353" gradientUnits="userSpaceOnUse">
<stop stop-color="#C8A666"/>
<stop offset="0.522452" stop-color="#B8844F"/>
<stop offset="1" stop-color="#BB9C60"/>
</linearGradient>
<linearGradient id="paint19_linear_4328_3468" x1="105.2" y1="91.9811" x2="108.455" y2="91.978" gradientUnits="userSpaceOnUse">
<stop stop-color="#C8A666"/>
<stop offset="0.522452" stop-color="#B8844F"/>
<stop offset="1" stop-color="#BB9C60"/>
</linearGradient>
</defs>
</svg>
