<svg width="347" height="100" viewBox="0 0 347 100" fill="none" xmlns="http://www.w3.org/2000/svg">
<path d="M89.315 71.6489C89.315 72.1234 89.1964 72.3607 88.9592 72.3607C86.5867 72.3607 84.748 72.3607 83.3838 72.2421L75.5547 72.1234L68.2593 72.2421C67.073 72.3014 65.353 72.3607 63.1585 72.3607C60.9639 72.3607 62.9212 72.1234 62.9212 71.6489C62.9212 71.1744 62.9805 70.9372 63.1585 70.9372C65.7089 70.9372 67.6662 70.6999 68.9117 70.2848C70.1573 69.8696 70.9876 69.1578 71.4028 68.0902C71.818 67.0226 71.9366 65.3619 71.818 63.108L69.7421 11.3879L43.8227 71.5303C43.6448 71.8269 43.3482 72.0048 42.9331 72.0048C42.5179 72.0048 42.2213 71.8269 41.9248 71.5303L13.8702 12.0404L12.8619 59.9052C12.8026 63.9384 13.455 66.7853 14.9378 68.4461C16.3613 70.1068 18.9117 70.9372 22.5297 70.9372C26.1478 70.9372 22.767 71.1744 22.767 71.6489C22.767 72.1234 22.7077 72.3607 22.5297 72.3607C20.3945 72.3607 18.7931 72.3607 17.6662 72.2421L11.4977 72.1234L5.56651 72.2421C4.4989 72.3014 3.0161 72.3607 0.99949 72.3607C-1.01712 72.3607 0.762242 72.1234 0.762242 71.6489C0.762242 71.1744 0.821554 70.9372 0.99949 70.9372C4.20234 70.9372 6.45619 70.1068 7.87968 68.3868C9.30317 66.6667 10.0149 63.8791 10.0742 59.9052L11.0825 7.11748C8.88798 4.15188 5.80376 2.60977 1.82986 2.60977C-2.14404 2.60977 1.59261 2.37252 1.59261 1.89802C1.59261 1.42353 1.65192 1.18628 1.82986 1.18628L6.04101 1.3049C6.81207 1.36422 7.87968 1.42353 9.24386 1.42353C10.608 1.42353 11.735 1.42353 12.684 1.3049C13.6329 1.24559 14.3447 1.18628 14.8785 1.18628C15.8868 1.18628 16.6579 1.54215 17.3103 2.2539C17.9627 2.96564 18.9117 4.56706 20.0979 7.05817L45.4835 60.4983L70.2759 4.09257C71.1063 2.19458 72.2332 1.24559 73.716 1.24559C75.1988 1.24559 74.665 1.24559 75.3767 1.36422C76.0885 1.42353 77.0375 1.48284 78.283 1.48284L83.6211 1.36422C84.4515 1.3049 85.697 1.24559 87.3577 1.24559C89.0185 1.24559 87.7136 1.48284 87.7136 1.95734C87.7136 2.43183 87.595 2.66908 87.3577 2.66908C83.5618 2.66908 80.8334 3.20289 79.232 4.32982C77.5713 5.45674 76.8002 7.47335 76.9188 10.4983L79.1727 63.1673C79.232 65.5398 79.5286 67.2005 80.0031 68.2682C80.4776 69.3358 81.3672 70.0475 82.6721 70.4034C83.977 70.7593 86.0529 70.9965 88.8999 70.9965C91.7468 70.9965 89.2557 71.2337 89.2557 71.7082L89.315 71.6489Z" fill="white"/>
<path d="M114.463 68.7426C108.947 65.4211 104.736 60.9727 101.711 55.3381C98.6863 49.7035 97.2035 43.535 97.2035 36.8327C97.2035 30.1305 99.1608 22.3606 103.135 16.7853C107.049 11.21 112.15 6.99882 118.319 4.21115C124.487 1.42349 130.833 0 137.239 0C143.645 0 150.762 1.66074 156.219 5.04152C161.676 8.4223 165.887 12.8707 168.793 18.3867C171.699 23.9027 173.182 29.7746 173.182 36.0024C173.182 42.2301 171.343 49.229 167.725 54.9822C164.107 60.7355 159.185 65.3025 153.135 68.624C147.026 71.9454 140.442 73.6062 133.265 73.6062C126.088 73.6062 119.92 71.9455 114.463 68.6833V68.7426ZM151.177 67.5564C155.329 65.0653 158.591 61.3879 160.964 56.5243C163.336 51.6608 164.523 45.9075 164.523 39.2645C164.523 32.6216 163.218 25.8007 160.549 20.2847C157.88 14.7687 154.143 10.4389 149.339 7.29538C144.534 4.21115 138.9 2.60973 132.435 2.60973C125.97 2.60973 117.547 5.27877 112.862 10.6762C108.176 16.0736 105.804 23.4282 105.804 32.8588C105.804 42.2895 107.109 46.5006 109.778 52.3725C112.447 58.2444 116.124 62.8707 120.928 66.2515C125.733 69.6323 131.13 71.293 137.18 71.293C143.23 71.293 146.966 70.0475 151.118 67.5564H151.177Z" fill="white"/>
<path d="M201.593 68.7426C196.077 65.4211 191.865 60.9727 188.84 55.3381C185.816 49.7035 184.333 43.535 184.333 36.8327C184.333 30.1305 186.29 22.3606 190.264 16.7853C194.179 11.21 199.279 6.99882 205.448 4.21115C211.616 1.42349 217.963 0 224.368 0C230.774 0 237.891 1.66074 243.348 5.04152C248.805 8.4223 253.016 12.8707 255.922 18.3867C258.829 23.9027 260.311 29.7746 260.311 36.0024C260.311 42.2301 258.473 49.229 254.855 54.9822C251.237 60.7355 246.373 65.3025 240.264 68.624C234.155 71.9454 227.571 73.6062 220.394 73.6062C213.218 73.6062 207.049 71.9455 201.593 68.6833V68.7426ZM238.307 67.5564C242.459 65.0653 245.721 61.3879 248.093 56.5243C250.466 51.6607 251.652 45.9075 251.652 39.2645C251.652 32.6216 250.347 25.8007 247.678 20.2847C245.009 14.7687 241.272 10.4389 236.468 7.29538C231.664 4.21115 226.029 2.60973 219.564 2.60973C213.099 2.60973 204.677 5.27877 199.991 10.6762C195.305 16.0736 192.933 23.4282 192.933 32.8588C192.933 42.2895 194.238 46.5006 196.907 52.3725C199.576 58.2444 203.253 62.8707 208.058 66.2515C212.862 69.6323 218.259 71.293 224.309 71.293C230.359 71.293 234.096 70.0475 238.247 67.5564H238.307Z" fill="white"/>
<path d="M346.255 1.95734C346.255 2.43183 346.136 2.66908 345.899 2.66908C342.696 2.66908 340.383 3.55876 338.959 5.27881C337.536 6.99885 336.824 9.84583 336.824 13.8197V73.7248C336.824 73.9028 336.646 73.9621 336.231 74.0807C335.875 74.14 335.578 74.0807 335.46 73.9621L283.147 10.6169L282.138 9.48996V59.9645C282.138 63.8791 282.85 66.726 284.214 68.4461C285.638 70.1661 287.892 70.9965 290.976 70.9965C294.06 70.9965 291.332 71.2337 291.332 71.7082C291.332 72.1827 291.213 72.42 290.976 72.42C289.078 72.42 287.654 72.42 286.646 72.3014L280.952 72.1827L275.14 72.3014C274.072 72.3607 272.53 72.42 270.454 72.42C268.378 72.42 270.217 72.1827 270.217 71.7082C270.217 71.2337 270.276 70.9965 270.454 70.9965C273.716 70.9965 276.029 70.1661 277.393 68.4461C278.758 66.726 279.41 63.9384 279.41 59.9645V6.70229C276.444 3.97394 273.479 2.60977 270.454 2.60977C267.429 2.60977 270.098 2.37252 270.098 1.89802C270.098 1.42353 270.217 1.18628 270.454 1.18628L274.665 1.3049C275.555 1.36422 276.8 1.42353 278.402 1.42353C280.003 1.42353 281.427 1.42353 282.494 1.3049C283.562 1.24559 284.392 1.18628 284.985 1.18628C285.578 1.18628 286.053 1.3049 286.29 1.60146C286.527 1.83871 287.002 2.43183 287.595 3.38082C288.485 4.745 289.434 5.99055 290.323 7.11748L334.096 60.9135V13.7604C334.096 9.84583 333.443 6.99885 332.079 5.21949C330.774 3.49945 328.52 2.60977 325.436 2.60977C322.352 2.60977 325.199 2.37252 325.199 1.89802C325.199 1.42353 325.258 1.18628 325.436 1.18628L329.884 1.3049C332.138 1.48284 334.036 1.54215 335.46 1.54215C336.883 1.54215 338.722 1.48284 341.154 1.3049L345.839 1.18628C346.077 1.18628 346.195 1.42353 346.195 1.89802L346.255 1.95734Z" fill="white"/>
<path d="M97.2625 93.2978C97.2625 89.2053 99.5163 86.7142 102.719 86.7142C105.922 86.7142 108.176 89.2053 108.176 93.2978C108.176 97.3903 105.922 100 102.719 100C99.5163 100 97.2625 97.4496 97.2625 93.2978ZM106.515 93.2978C106.515 90.095 105.032 88.1377 102.719 88.1377C100.406 88.1377 98.9825 90.095 98.9825 93.2978C98.9825 96.5007 100.465 98.5766 102.719 98.5766C104.973 98.5766 106.515 96.5007 106.515 93.2978Z" fill="white"/>
<path d="M110.964 86.9508H114.641C117.488 86.9508 119.446 87.8998 119.446 90.7468C119.446 93.5937 117.488 94.7207 114.701 94.7207H112.625V99.8215H110.964V87.0101V86.9508ZM114.523 93.3565C116.777 93.3565 117.844 92.5261 117.844 90.7468C117.844 88.9674 116.717 88.315 114.463 88.315H112.625V93.4158H114.523V93.3565Z" fill="white"/>
<path d="M124.665 88.3753H120.81V87.0111H130.181V88.3753H126.326V99.7632H124.665V88.3753Z" fill="white"/>
<path d="M132.435 86.9508H134.096V99.7622H132.435V86.9508Z" fill="white"/>
<path d="M136.824 93.3571C136.824 89.2646 139.256 86.7142 142.518 86.7142C145.78 86.7142 145.306 87.4259 146.077 88.3156L145.187 89.3239C144.476 88.6122 143.645 88.197 142.578 88.197C140.205 88.197 138.604 90.1543 138.604 93.3571C138.604 96.56 140.146 98.5766 142.518 98.5766C144.891 98.5766 144.654 98.1021 145.484 97.2124L146.374 98.1614C145.365 99.3476 144.12 100 142.459 100C139.256 100 136.884 97.5683 136.884 93.3571H136.824Z" fill="white"/>
<path d="M148.686 86.9508H150.347V99.7622H148.686V86.9508Z" fill="white"/>
<path d="M153.847 86.9524H161.201V88.3165H155.448V92.2905H160.312V93.6546H155.448V98.281H161.379V99.6451H153.787V86.8337L153.847 86.9524Z" fill="white"/>
<path d="M164.107 86.9508H165.886L170.453 94.9579C170.928 95.7883 171.402 96.7966 171.818 97.6863H171.877C171.758 96.3814 171.64 94.9579 171.64 93.6531V86.9508H173.182V99.7622H171.402L166.835 91.7551C166.361 90.9247 165.886 89.9164 165.471 89.0267H165.412C165.531 90.3316 165.649 91.6958 165.649 93.0006V99.7622H164.107V86.9508Z" fill="white"/>
<path d="M180.596 86.9509H182.257V98.3388H187.832V99.7029H180.596V86.8915V86.9509Z" fill="white"/>
<path d="M190.026 94.4834V86.9508H191.687V94.4834C191.687 97.5676 192.992 98.5166 194.653 98.5166C196.313 98.5166 197.678 97.5676 197.678 94.4834V86.9508H199.279V94.4834C199.279 98.576 197.262 99.9994 194.653 99.9994C192.043 99.9994 190.026 98.576 190.026 94.4834Z" fill="white"/>
<path d="M202.719 86.9508H204.498L209.066 94.9579C209.54 95.7883 210.014 96.7966 210.43 97.6863H210.489C210.37 96.3814 210.252 94.9579 210.252 93.6531V86.9508H211.794V99.7622H210.015L205.447 91.7551C204.973 90.9247 204.498 89.9164 204.083 89.0267H204.024C204.143 90.3316 204.261 91.6958 204.261 93.0006V99.7622H202.719V86.9508Z" fill="white"/>
<path d="M215.293 86.9524H222.648V88.3165H216.895V92.2905H221.758V93.6546H216.895V98.281H222.826V99.6451H215.234V86.8337L215.293 86.9524Z" fill="white"/>
<path d="M228.224 88.3753H224.368V87.0111H233.74V88.3753H229.884V99.7632H228.224V88.3753Z" fill="white"/>
<path d="M236.052 86.9508H237.713V99.7622H236.052V86.9508Z" fill="white"/>
<path d="M241.154 86.9524H248.508V88.3165H242.755V92.2905H247.619V93.6546H242.755V98.281H248.686V99.6451H241.094V86.8337L241.154 86.9524Z" fill="white"/>
<path d="M251.415 86.9508H255.389C257.999 86.9508 259.897 87.8998 259.897 90.5688C259.897 93.2379 258.77 93.7124 257.05 94.1869L260.312 99.7622H258.473L255.389 94.3648H253.076V99.7622H251.415V86.9508ZM255.152 93.0006C257.168 93.0006 258.236 92.1703 258.236 90.5688C258.236 88.9674 257.168 88.315 255.152 88.315H253.017V93.0599H255.152V93.0006Z" fill="white"/>
</svg>
