<svg width="250" height="250" viewBox="0 0 250 250" fill="none" xmlns="http://www.w3.org/2000/svg">
<rect width="250" height="250" rx="16" fill="#0F0F0F"/>
<path d="M73.6846 137.868C73.6846 138.159 73.612 138.304 73.4667 138.304C72.0141 138.304 70.8884 138.304 70.0531 138.231L65.2596 138.159L60.7929 138.231C60.0666 138.268 59.0134 138.304 57.6698 138.304C56.3261 138.304 57.5245 138.159 57.5245 137.868C57.5245 137.578 57.5608 137.432 57.6698 137.432C59.2313 137.432 60.4297 137.287 61.1923 137.033C61.9549 136.779 62.4633 136.343 62.7175 135.689C62.9717 135.036 63.0444 134.019 62.9717 132.639L61.7007 100.972L45.8312 137.796C45.7222 137.977 45.5407 138.086 45.2865 138.086C45.0323 138.086 44.8507 137.977 44.6691 137.796L27.4923 101.372L26.8749 130.678C26.8386 133.147 27.238 134.89 28.1459 135.907C29.0175 136.924 30.579 137.432 32.7942 137.432C35.0094 137.432 32.9395 137.578 32.9395 137.868C32.9395 138.159 32.9031 138.304 32.7942 138.304C31.4869 138.304 30.5064 138.304 29.8164 138.231L26.0397 138.159L22.4082 138.231C21.7545 138.268 20.8467 138.304 19.612 138.304C18.3773 138.304 19.4667 138.159 19.4667 137.868C19.4667 137.578 19.503 137.432 19.612 137.432C21.5729 137.432 22.9529 136.924 23.8245 135.871C24.696 134.818 25.1318 133.111 25.1681 130.678L25.7855 98.3578C24.4418 96.5421 22.5534 95.5979 20.1204 95.5979C17.6873 95.5979 19.9751 95.4526 19.9751 95.1621C19.9751 94.8716 20.0114 94.7263 20.1204 94.7263L22.6987 94.7989C23.1708 94.8353 23.8245 94.8716 24.6597 94.8716C25.4949 94.8716 26.1849 94.8716 26.766 94.7989C27.347 94.7626 27.7828 94.7263 28.1096 94.7263C28.727 94.7263 29.199 94.9442 29.5985 95.38C29.998 95.8158 30.579 96.7963 31.3053 98.3215L46.848 131.041L62.0276 96.5057C62.536 95.3437 63.2259 94.7626 64.1338 94.7626C65.0417 94.7626 64.7149 94.7626 65.1506 94.8353C65.5864 94.8716 66.1674 94.9079 66.9301 94.9079L70.1984 94.8353C70.7068 94.7989 71.4694 94.7626 72.4862 94.7626C73.503 94.7626 72.7041 94.9079 72.7041 95.1984C72.7041 95.4889 72.6315 95.6342 72.4862 95.6342C70.1621 95.6342 68.4916 95.961 67.5111 96.651C66.4943 97.341 66.0222 98.5757 66.0948 100.428L67.4748 132.675C67.5111 134.128 67.6927 135.145 67.9832 135.798C68.2737 136.452 68.8184 136.888 69.6173 137.106C70.4163 137.324 71.6873 137.469 73.4304 137.469C75.1735 137.469 73.6483 137.614 73.6483 137.905L73.6846 137.868Z" fill="white"/>
<path d="M89.082 136.089C85.7047 134.055 83.1264 131.332 81.2743 127.882C79.4223 124.432 78.5144 120.655 78.5144 116.551C78.5144 112.448 79.7128 107.691 82.1459 104.277C84.5426 100.863 87.6657 98.2851 91.4425 96.5783C95.2192 94.8716 99.1049 94 103.027 94C106.949 94 111.307 95.0168 114.648 97.0868C117.989 99.1567 120.567 101.88 122.346 105.258C124.126 108.635 125.034 112.23 125.034 116.043C125.034 119.856 123.908 124.141 121.693 127.664C119.477 131.186 116.463 133.983 112.759 136.016C109.019 138.05 104.988 139.067 100.594 139.067C96.1997 139.067 92.4229 138.05 89.082 136.052V136.089ZM111.561 135.362C114.103 133.837 116.1 131.586 117.553 128.608C119.005 125.63 119.732 122.108 119.732 118.04C119.732 113.973 118.933 109.797 117.299 106.42C115.664 103.042 113.377 100.391 110.435 98.4667C107.494 96.5783 104.044 95.5978 100.085 95.5978C96.127 95.5978 90.9704 97.232 88.1015 100.537C85.2326 103.841 83.78 108.344 83.78 114.118C83.78 119.892 84.579 122.471 86.2131 126.066C87.8473 129.661 90.0988 132.494 93.0403 134.564C95.9818 136.633 99.2864 137.65 102.991 137.65C106.695 137.65 108.982 136.888 111.524 135.362H111.561Z" fill="white"/>
<path d="M142.428 136.089C139.051 134.055 136.473 131.332 134.621 127.882C132.769 124.432 131.861 120.655 131.861 116.551C131.861 112.448 133.059 107.691 135.492 104.277C137.889 100.863 141.012 98.2851 144.789 96.5783C148.566 94.8716 152.451 94 156.373 94C160.295 94 164.653 95.0168 167.994 97.0868C171.335 99.1567 173.913 101.88 175.693 105.258C177.472 108.635 178.38 112.23 178.38 116.043C178.38 119.856 177.254 124.141 175.039 127.664C172.824 131.186 169.846 133.983 166.106 136.016C162.365 138.05 158.334 139.067 153.94 139.067C149.546 139.067 145.769 138.05 142.428 136.052V136.089ZM164.907 135.362C167.449 133.837 169.447 131.586 170.899 128.608C172.352 125.63 173.078 122.108 173.078 118.04C173.078 113.973 172.279 109.797 170.645 106.42C169.011 103.042 166.723 100.391 163.781 98.4667C160.84 96.5783 157.39 95.5978 153.432 95.5978C149.473 95.5978 144.317 97.232 141.448 100.537C138.579 103.841 137.126 108.344 137.126 114.118C137.126 119.892 137.925 122.471 139.56 126.066C141.194 129.661 143.445 132.494 146.387 134.564C149.328 136.633 152.633 137.65 156.337 137.65C160.041 137.65 162.329 136.888 164.871 135.362H164.907Z" fill="white"/>
<path d="M231 95.1984C231 95.4889 230.927 95.6342 230.782 95.6342C228.821 95.6342 227.405 96.1789 226.533 97.232C225.662 98.2852 225.226 100.028 225.226 102.461V139.139C225.226 139.248 225.117 139.284 224.863 139.357C224.645 139.393 224.463 139.357 224.391 139.284L192.361 100.5L191.744 99.8104V130.714C191.744 133.111 192.18 134.854 193.015 135.907C193.886 136.96 195.266 137.469 197.155 137.469C199.043 137.469 197.373 137.614 197.373 137.905C197.373 138.195 197.3 138.34 197.155 138.34C195.993 138.34 195.121 138.34 194.504 138.268L191.017 138.195L187.459 138.268C186.805 138.304 185.861 138.34 184.59 138.34C183.319 138.34 184.444 138.195 184.444 137.905C184.444 137.614 184.481 137.469 184.59 137.469C186.587 137.469 188.003 136.96 188.839 135.907C189.674 134.854 190.073 133.147 190.073 130.714V98.1036C188.258 96.4331 186.442 95.5979 184.59 95.5979C182.738 95.5979 184.372 95.4526 184.372 95.1621C184.372 94.8716 184.444 94.7263 184.59 94.7263L187.168 94.7989C187.713 94.8353 188.475 94.8716 189.456 94.8716C190.436 94.8716 191.308 94.8716 191.962 94.7989C192.615 94.7626 193.124 94.7263 193.487 94.7263C193.85 94.7263 194.141 94.7989 194.286 94.9805C194.431 95.1258 194.722 95.4889 195.085 96.07C195.629 96.9052 196.21 97.6678 196.755 98.3578L223.555 131.295V102.425C223.555 100.028 223.156 98.2852 222.321 97.1957C221.522 96.1426 220.142 95.5979 218.253 95.5979C216.365 95.5979 218.108 95.4526 218.108 95.1621C218.108 94.8716 218.145 94.7263 218.253 94.7263L220.977 94.7989C222.357 94.9079 223.519 94.9442 224.391 94.9442C225.262 94.9442 226.388 94.9079 227.877 94.7989L230.746 94.7263C230.891 94.7263 230.964 94.8716 230.964 95.1621L231 95.1984Z" fill="white"/>
<path d="M78.5505 151.123C78.5505 148.617 79.9305 147.092 81.8915 147.092C83.8525 147.092 85.2324 148.617 85.2324 151.123C85.2324 153.629 83.8525 155.227 81.8915 155.227C79.9305 155.227 78.5505 153.665 78.5505 151.123ZM84.2156 151.123C84.2156 149.162 83.3078 147.964 81.8915 147.964C80.4752 147.964 79.6037 149.162 79.6037 151.123C79.6037 153.084 80.5115 154.355 81.8915 154.355C83.2715 154.355 84.2156 153.084 84.2156 151.123Z" fill="white"/>
<path d="M86.9395 147.237H89.191C90.9341 147.237 92.1325 147.818 92.1325 149.561C92.1325 151.304 90.9341 151.994 89.2273 151.994H87.9563V155.117H86.9395V147.273V147.237ZM89.1183 151.159C90.4983 151.159 91.152 150.651 91.152 149.561C91.152 148.472 90.462 148.072 89.082 148.072H87.9563V151.195H89.1183V151.159Z" fill="white"/>
<path d="M95.3282 148.109H92.9678V147.274H98.7055V148.109H96.345V155.082H95.3282V148.109Z" fill="white"/>
<path d="M100.086 147.237H101.102V155.081H100.086V147.237Z" fill="white"/>
<path d="M102.773 151.159C102.773 148.654 104.262 147.092 106.259 147.092C108.256 147.092 107.966 147.528 108.438 148.073L107.893 148.69C107.457 148.254 106.949 148 106.295 148C104.843 148 103.862 149.198 103.862 151.159C103.862 153.12 104.807 154.355 106.259 154.355C107.712 154.355 107.566 154.065 108.075 153.52L108.62 154.101C108.002 154.827 107.24 155.227 106.223 155.227C104.262 155.227 102.809 153.738 102.809 151.159H102.773Z" fill="white"/>
<path d="M110.036 147.237H111.052V155.081H110.036V147.237Z" fill="white"/>
<path d="M113.195 147.238H117.698V148.073H114.176V150.506H117.153V151.342H114.176V154.174H117.807V155.009H113.159V147.165L113.195 147.238Z" fill="white"/>
<path d="M119.477 147.237H120.567L123.363 152.14C123.653 152.648 123.944 153.265 124.198 153.81H124.234C124.162 153.011 124.089 152.14 124.089 151.341V147.237H125.033V155.081H123.944L121.148 150.179C120.857 149.67 120.567 149.053 120.312 148.508H120.276C120.349 149.307 120.421 150.142 120.421 150.941V155.081H119.477V147.237Z" fill="white"/>
<path d="M129.573 147.237H130.59V154.209H134.003V155.045H129.573V147.201V147.237Z" fill="white"/>
<path d="M135.347 151.849V147.237H136.364V151.849C136.364 153.737 137.162 154.318 138.179 154.318C139.196 154.318 140.031 153.737 140.031 151.849V147.237H141.012V151.849C141.012 154.355 139.777 155.226 138.179 155.226C136.581 155.226 135.347 154.355 135.347 151.849Z" fill="white"/>
<path d="M143.118 147.237H144.208L147.004 152.14C147.294 152.648 147.585 153.265 147.839 153.81H147.875C147.803 153.011 147.73 152.14 147.73 151.341V147.237H148.674V155.081H147.585L144.789 150.179C144.498 149.67 144.208 149.053 143.953 148.508H143.917C143.99 149.307 144.062 150.142 144.062 150.941V155.081H143.118V147.237Z" fill="white"/>
<path d="M150.817 147.238H155.32V148.073H151.797V150.506H154.775V151.342H151.797V154.174H155.429V155.009H150.781V147.165L150.817 147.238Z" fill="white"/>
<path d="M158.734 148.109H156.373V147.274H162.111V148.109H159.75V155.082H158.734V148.109Z" fill="white"/>
<path d="M163.527 147.237H164.544V155.081H163.527V147.237Z" fill="white"/>
<path d="M166.65 147.238H171.153V148.073H167.631V150.506H170.609V151.342H167.631V154.174H171.262V155.009H166.614V147.165L166.65 147.238Z" fill="white"/>
<path d="M172.933 147.237H175.366C176.964 147.237 178.126 147.818 178.126 149.452C178.126 151.086 177.436 151.377 176.383 151.667L178.38 155.081H177.254L175.366 151.776H173.95V155.081H172.933V147.237ZM175.221 150.941C176.456 150.941 177.109 150.433 177.109 149.452C177.109 148.472 176.456 148.072 175.221 148.072H173.914V150.977H175.221V150.941Z" fill="white"/>
</svg>
