<svg width="55" height="72" viewBox="0 0 55 72" fill="none" xmlns="http://www.w3.org/2000/svg">
<rect width="55" height="72" rx="6" fill="#D1DDD3"/>
<path d="M24.0272 26.4161C21.4316 27.0079 19.1608 28.5703 17.6804 30.7829C16.2 32.9956 15.6222 35.6908 16.0655 38.3158M24.0272 26.4161L20.5535 25M24.0272 26.4161L22.8693 29.6316M35.6802 41.2105C36.3953 39.7714 36.7663 38.1859 36.764 36.5789C36.764 31.4147 33.009 27.1294 28.0798 26.3015M35.6802 41.2105L39.0798 38.8947M35.6802 41.2105L33.8693 37.7368M17.6773 42.3684C18.6287 43.7942 19.9176 44.963 21.4293 45.771C22.941 46.579 24.6289 47.0011 26.343 47C28.907 47.0032 31.3815 46.0579 33.2904 44.3461M17.6773 42.3684H21.7114M17.6773 42.3684V46.421" stroke="#1E3A3D" stroke-width="1.5" stroke-linecap="round" stroke-linejoin="round"/>
</svg>
