<svg width="55" height="72" viewBox="0 0 55 72" fill="none" xmlns="http://www.w3.org/2000/svg">
<rect width="55" height="72" rx="6" fill="#D1DDD3"/>
<path d="M24.4306 41.0557L28.7639 42.5002C28.7639 42.5002 39.5972 40.3335 41.0417 40.3335C42.4861 40.3335 42.4861 41.7779 41.0417 43.2224C39.5972 44.6668 34.5417 49.0002 30.2083 49.0002C25.875 49.0002 22.9861 46.8335 20.0972 46.8335H12.875" stroke="#1E3A3D" stroke-width="2" stroke-linecap="round" stroke-linejoin="round"/>
<path d="M12.875 38.1667C14.3194 36.7222 17.2083 34.5556 20.0972 34.5556C22.9861 34.5556 29.8472 37.4444 30.9306 38.8889C32.0139 40.3333 28.7639 42.5 28.7639 42.5M21.5417 30.2222V24.4444C21.5417 24.0614 21.6938 23.694 21.9647 23.4231C22.2356 23.1522 22.603 23 22.9861 23H40.3194C40.7025 23 41.0699 23.1522 41.3408 23.4231C41.6117 23.694 41.7639 24.0614 41.7639 24.4444V36" stroke="#1E3A3D" stroke-width="2" stroke-linecap="round" stroke-linejoin="round"/>
<path d="M28.0415 23H35.2637V29.5H28.0415V23Z" stroke="#1E3A3D" stroke-width="2" stroke-linecap="round" stroke-linejoin="round"/>
</svg>
