<svg width="55" height="72" viewBox="0 0 55 72" fill="none" xmlns="http://www.w3.org/2000/svg">
<rect width="55" height="72" rx="6" fill="#D1DDD3"/>
<path d="M38.7916 33.2483C38.6698 32.8725 38.4393 32.5413 38.1292 32.2966C37.8191 32.0518 37.4434 31.9046 37.0496 31.8735L31.4925 31.4248L29.3479 26.2389C29.1972 25.8724 28.9409 25.559 28.6117 25.3384C28.2825 25.1178 27.8951 25 27.4988 25C27.1025 25 26.7152 25.1178 26.3859 25.3384C26.0567 25.559 25.8005 25.8724 25.6497 26.2389L23.5071 31.4258L17.95 31.8735C17.5555 31.9061 17.1794 32.0545 16.8689 32.3002C16.5585 32.5458 16.3276 32.8778 16.2052 33.2542C16.0829 33.6307 16.0746 34.035 16.1813 34.4162C16.288 34.7975 16.505 35.1386 16.805 35.3969L21.0452 39.0538L19.749 44.5234C19.6545 44.9091 19.6768 45.3141 19.8133 45.687C19.9497 46.0599 20.194 46.3837 20.5151 46.6173C20.8362 46.8508 21.2195 46.9836 21.6163 46.9986C22.013 47.0136 22.4053 46.9101 22.7431 46.7015L27.4988 43.7742L32.2546 46.7015C32.5923 46.9087 32.9839 47.0112 33.3798 46.9958C33.7757 46.9804 34.1582 46.8478 34.4788 46.6149C34.7994 46.382 35.0436 46.0593 35.1807 45.6875C35.3177 45.3157 35.3414 44.9116 35.2486 44.5264L33.9524 39.0567L38.1926 35.3998C38.4944 35.1409 38.7125 34.7982 38.8192 34.4151C38.9258 34.0321 38.9162 33.6259 38.7916 33.2483ZM31.8716 37.736C31.7081 37.8769 31.5864 38.0601 31.5199 38.2655C31.4534 38.4709 31.4446 38.6906 31.4945 38.9006L32.7603 44.2465L28.1165 41.3909C27.9307 41.2766 27.7169 41.216 27.4988 41.216C27.2807 41.216 27.0669 41.2766 26.8812 41.3909L22.2374 44.2465L23.5031 38.9045C23.553 38.6945 23.5442 38.4748 23.4777 38.2694C23.4112 38.064 23.2896 37.8809 23.1261 37.7399L18.9752 34.1557L24.4154 33.7167C24.6319 33.6993 24.8394 33.6224 25.0149 33.4945C25.1904 33.3667 25.3272 33.1927 25.4101 32.992L27.4988 27.9348L29.5875 32.992C29.6704 33.1927 29.8072 33.3667 29.9827 33.4945C30.1583 33.6224 30.3658 33.6993 30.5822 33.7167L36.0224 34.1557L31.8716 37.736Z" fill="#1E3A3D"/>
</svg>
