<svg width="55" height="72" viewBox="0 0 55 72" fill="none" xmlns="http://www.w3.org/2000/svg">
<rect width="55" height="72" rx="6" fill="#D1DDD3"/>
<path d="M17.1533 25C15.6837 25 14.3263 25.7348 13.509 26.9591L10.4499 31.5318C10.0899 32.071 9.89845 32.7051 9.89992 33.3534V40.6409C9.89789 41.1292 10.0592 41.6042 10.3582 41.9903C10.6572 42.3763 11.0766 42.6514 11.5499 42.7716L14.4033 43.4943C14.6085 44.4829 15.1475 45.3709 15.9298 46.0092C16.7122 46.6475 17.6902 46.9973 18.6999 47C20.7371 47 22.4377 45.5909 22.9283 43.7H33.1715C33.6621 45.5909 35.3627 47 37.3999 47C39.4371 47 41.1377 45.5909 41.6283 43.7H42.8999C44.1033 43.7 45.0999 42.7034 45.0999 41.5V37.4784C45.0989 36.4979 44.7702 35.5459 44.1661 34.7736C43.562 34.0013 42.7172 33.453 41.7658 33.2159L35.8181 31.7034L31.5215 26.5818C31.1105 26.0872 30.5957 25.6891 30.0136 25.4158C29.4315 25.1424 28.7964 25.0005 28.1533 25H17.1533ZM17.1533 27.2H21.9999V31.6H13.0624L15.3317 28.1966V28.1625C15.531 27.8632 15.8019 27.6183 16.1198 27.4503C16.4378 27.2822 16.7937 27.1961 17.1533 27.2ZM24.1999 27.2H28.1533C28.8056 27.2 29.4205 27.4882 29.8374 27.9909L32.8624 31.6H24.1999V27.2ZM12.0999 33.8H35.0624L41.2499 35.3466C41.7247 35.4644 42.1459 35.739 42.4453 36.1258C42.7447 36.5127 42.9049 36.9892 42.8999 37.4784V41.5H41.6283C41.1377 39.6091 39.4371 38.2 37.3999 38.2C35.3627 38.2 33.6621 39.6091 33.1715 41.5H22.9283C22.4377 39.6091 20.7371 38.2 18.6999 38.2C16.7496 38.2 15.1117 39.4892 14.5408 41.2591L12.0999 40.642V33.8ZM18.6999 40.4C19.9286 40.4 20.8999 41.3713 20.8999 42.6C20.8999 43.8287 19.9286 44.8 18.6999 44.8C17.4712 44.8 16.4999 43.8287 16.4999 42.6C16.4999 41.3713 17.4712 40.4 18.6999 40.4ZM37.3999 40.4C38.6286 40.4 39.5999 41.3713 39.5999 42.6C39.5999 43.8287 38.6286 44.8 37.3999 44.8C36.1712 44.8 35.1999 43.8287 35.1999 42.6C35.1999 41.3713 36.1712 40.4 37.3999 40.4Z" fill="#1E3A3D"/>
</svg>
