<svg width="55" height="72" viewBox="0 0 55 72" fill="none" xmlns="http://www.w3.org/2000/svg">
<rect width="55" height="72" rx="6" fill="#D1DDD3"/>
<path fill-rule="evenodd" clip-rule="evenodd" d="M34.6641 41.4233C34.6641 40.7106 34.9472 40.027 35.4512 39.523C35.9552 39.019 36.6388 38.7358 37.3516 38.7358C38.0643 38.7358 38.7479 39.019 39.2519 39.523C39.7559 40.027 40.0391 40.7106 40.0391 41.4233V53.0208C40.0391 53.2584 39.9447 53.4862 39.7767 53.6542C39.6087 53.8222 39.3808 53.9166 39.1432 53.9166C38.9056 53.9166 38.6778 53.8222 38.5098 53.6542C38.3418 53.4862 38.2474 53.2584 38.2474 53.0208V41.4233C38.2474 41.1858 38.153 40.9579 37.985 40.7899C37.817 40.6219 37.5892 40.5275 37.3516 40.5275C37.114 40.5275 36.8861 40.6219 36.7181 40.7899C36.5501 40.9579 36.4557 41.1858 36.4557 41.4233V41.7306C36.4557 41.9682 36.3613 42.1961 36.1933 42.3641C36.0253 42.5321 35.7975 42.6264 35.5599 42.6264C35.3223 42.6264 35.0944 42.5321 34.9264 42.3641C34.7584 42.1961 34.6641 41.9682 34.6641 41.7306V41.4233Z" fill="#1E3A3D"/>
<path fill-rule="evenodd" clip-rule="evenodd" d="M22.3507 29.7291C20.5805 29.7291 19.1669 30.3203 18.1958 31.2672C17.7432 31.7073 17.3822 32.2326 17.1336 32.8129C16.885 33.3931 16.7537 34.0169 16.7472 34.6481C16.7385 35.2794 16.8582 35.906 17.099 36.4896C17.3399 37.0733 17.6969 37.6019 18.1483 38.0433C19.0827 38.9598 20.439 39.5376 22.1446 39.5806L23.0181 39.603V51.4683C23.0181 51.7075 23.2743 52.1007 23.8682 52.124C24.4648 52.1473 24.7802 51.7684 24.8071 51.5149L25.6832 43.1666H29.3113L30.1874 51.5158C30.2143 51.7684 30.5296 52.1473 31.1263 52.124C31.7202 52.1007 31.9764 51.7075 31.9764 51.4683V31.7429L33.2431 32.3189C34.2312 32.7678 34.8735 33.3402 35.2982 33.8553C35.764 34.4224 36.2065 35.1981 36.3221 36.051L36.3239 36.0689L36.3257 36.0832C36.3723 36.5419 36.8094 36.9379 37.3702 36.8922C37.9077 36.8492 38.2902 36.3851 38.2508 35.9256C38.2112 35.5749 38.1319 35.2299 38.0143 34.8971C37.7554 34.1212 37.3551 33.3998 36.8336 32.7695C35.5275 31.1821 33.1365 29.7291 28.9091 29.7291H22.3507ZM16.9452 29.9844C18.289 28.6747 20.1702 27.9374 22.3507 27.9374H28.9082C33.5889 27.9374 36.521 29.5696 38.2177 31.6309C38.8793 32.4315 39.3871 33.3475 39.7155 34.3328C39.8589 34.7664 39.9879 35.2501 40.0344 35.7643V35.7679C40.1715 37.315 38.9442 38.5629 37.5136 38.6785C36.048 38.7958 34.7042 37.7602 34.5448 36.2812C34.4856 35.8655 34.2456 35.397 33.9141 34.9939C33.8671 34.9372 33.8184 34.8819 33.7681 34.8282V51.4683C33.7681 52.8882 32.5175 53.8619 31.197 53.9139C29.8802 53.9659 28.5525 53.1023 28.4056 51.7012L27.6979 44.9583H27.2966L26.5889 51.7021C26.442 53.1023 25.1143 53.9659 23.7975 53.9148C22.477 53.8628 21.2264 52.8882 21.2264 51.4683V41.3095C19.5019 41.1035 18.0104 40.4182 16.8933 39.3208C16.27 38.7107 15.7769 37.9805 15.4439 37.1745C15.1108 36.3684 14.9447 35.5032 14.9556 34.6311C14.9643 33.7638 15.1445 32.9068 15.4858 32.1095C15.8271 31.3122 16.3228 30.5902 16.9443 29.9853M23.0181 31.4822V37.8274L22.0828 37.7862C20.895 37.7325 20.0788 37.3293 19.5521 36.8124C19.2694 36.5317 19.0464 36.1966 18.8964 35.8274C18.7465 35.4583 18.6727 35.0626 18.6796 34.6642C18.6815 34.2611 18.7634 33.8624 18.9205 33.4912C19.0777 33.12 19.307 32.7836 19.5951 32.5017C20.1299 31.9812 20.938 31.5817 22.0792 31.527L23.0181 31.4822ZM21.2264 33.5256C21.0018 33.6243 20.8108 33.7861 20.6767 33.9915C20.5426 34.1969 20.4712 34.4369 20.4712 34.6821C20.4676 35.0261 20.594 35.3254 20.8072 35.5332C20.8914 35.6165 21.024 35.7186 21.2264 35.8055V33.5256ZM27.4972 19.8749C26.7845 19.8749 26.1009 20.1581 25.5969 20.6621C25.0929 21.1661 24.8097 21.8496 24.8097 22.5624C24.8097 23.2752 25.0929 23.9588 25.5969 24.4628C26.1009 24.9668 26.7845 25.2499 27.4972 25.2499C28.21 25.2499 28.8936 24.9668 29.3976 24.4628C29.9016 23.9588 30.1847 23.2752 30.1847 22.5624C30.1847 21.8496 29.9016 21.1661 29.3976 20.6621C28.8936 20.1581 28.21 19.8749 27.4972 19.8749ZM23.0181 22.5624C23.0181 21.3745 23.49 20.2352 24.33 19.3952C25.17 18.5552 26.3093 18.0833 27.4972 18.0833C28.6852 18.0833 29.8245 18.5552 30.6645 19.3952C31.5045 20.2352 31.9764 21.3745 31.9764 22.5624C31.9764 23.7504 31.5045 24.8897 30.6645 25.7297C29.8245 26.5697 28.6852 27.0416 27.4972 27.0416C26.3093 27.0416 25.17 26.5697 24.33 25.7297C23.49 24.8897 23.0181 23.7504 23.0181 22.5624Z" fill="#1E3A3D"/>
</svg>
