<svg width="55" height="72" viewBox="0 0 55 72" fill="none" xmlns="http://www.w3.org/2000/svg">
<rect width="55" height="72" rx="6" fill="#D1DDD3"/>
<path d="M28.112 23.2137C27.9346 23.0754 27.716 23.0002 27.491 23.0002C27.266 23.0002 27.0474 23.0754 26.87 23.2137L12.5 34.4187L13.743 35.9907L15.5 34.6207V46.9997C15.5011 47.5298 15.7121 48.0379 16.087 48.4128C16.4618 48.7876 16.9699 48.9987 17.5 48.9997H37.5C38.0301 48.9987 38.5382 48.7876 38.913 48.4128C39.2879 48.0379 39.4989 47.5298 39.5 46.9997V34.6297L41.257 35.9997L42.5 34.4277L28.112 23.2137ZM29.5 46.9997H25.5V38.9997H29.5V46.9997ZM31.5 46.9997V38.9997C31.5 38.4693 31.2893 37.9606 30.9142 37.5855C30.5391 37.2104 30.0304 36.9997 29.5 36.9997H25.5C24.9696 36.9997 24.4609 37.2104 24.0858 37.5855C23.7107 37.9606 23.5 38.4693 23.5 38.9997V46.9997H17.5V33.0617L27.5 25.2717L37.5 33.0717V46.9997H31.5Z" fill="#1E3A3D"/>
</svg>
