<svg width="55" height="72" viewBox="0 0 55 72" fill="none" xmlns="http://www.w3.org/2000/svg">
<rect width="55" height="72" rx="6" fill="#D1DDD3"/>
<path fill-rule="evenodd" clip-rule="evenodd" d="M21.2142 24.985C22.6974 24.3909 24.3185 24.229 25.8899 24.5179C27.4613 24.8068 28.9188 25.5347 30.0937 26.6175C31.2686 27.7002 32.1129 29.0935 32.5289 30.6362C32.945 32.1788 32.9157 33.8077 32.4445 35.3344L37.7539 39.8269C38.2322 40.2334 38.621 40.7345 38.896 41.2987C39.1709 41.8629 39.326 42.4779 39.3514 43.105C39.3768 43.7321 39.272 44.3577 39.0437 44.9423C38.8153 45.5269 38.4682 46.0578 38.0244 46.5016C37.5806 46.9454 37.0497 47.2925 36.4651 47.5209C35.8805 47.7493 35.2549 47.8541 34.6278 47.8286C34.0007 47.8032 33.3857 47.6481 32.8215 47.3732C32.2573 47.0982 31.7562 46.7094 31.3497 46.2311L26.8584 40.9217C25.3315 41.393 23.7025 41.4224 22.1597 41.0063C20.6169 40.5903 19.2234 39.7458 18.1406 38.5707C17.0578 37.3957 16.3299 35.9379 16.0411 34.3663C15.7524 32.7947 15.9146 31.1735 16.509 29.6902C16.9416 28.61 18.2973 28.4734 19.0018 29.2395L22.8721 33.4421L24.6193 33.0941L24.9697 31.3432L20.7647 27.479C19.9986 26.7745 20.1328 25.4176 21.2142 24.985ZM23.6394 26.841L26.978 29.9102C27.3671 30.2678 27.5411 30.8019 27.4371 31.3179L26.8692 34.1623C26.8107 34.455 26.6668 34.7238 26.4556 34.9348C26.2444 35.1458 25.9754 35.2894 25.6826 35.3477L22.8431 35.9119C22.5889 35.9625 22.3261 35.9468 22.0797 35.8664C21.8334 35.786 21.6119 35.6435 21.4366 35.4528L18.3626 32.1154C18.2374 33.1547 18.3844 34.2087 18.7891 35.1742C19.1937 36.1397 19.8422 36.9835 20.671 37.623C21.4998 38.2625 22.4805 38.6758 23.5171 38.8223C24.5536 38.9689 25.6104 38.8437 26.5841 38.4591C26.8793 38.3419 27.2039 38.3203 27.5122 38.3972C27.8204 38.4742 28.0967 38.6459 28.3023 38.8881L33.1961 44.6712C33.3859 44.8964 33.6204 45.0797 33.8847 45.2095C34.1491 45.3394 34.4375 45.4129 34.7318 45.4254C35.026 45.438 35.3197 45.3892 35.5941 45.2824C35.8685 45.1755 36.1178 45.0127 36.3261 44.8045C36.5343 44.5962 36.697 44.347 36.8039 44.0725C36.9108 43.7981 36.9595 43.5044 36.947 43.2102C36.9345 42.9159 36.861 42.6275 36.7311 42.3631C36.6013 42.0988 36.4179 41.8643 36.1927 41.6745L30.4109 36.7807C30.1686 36.5752 29.997 36.2988 29.92 35.9906C29.8431 35.6824 29.8647 35.3578 29.9819 35.0625C30.3669 34.0889 30.4924 33.0319 30.3459 31.9952C30.1995 30.9585 29.7863 29.9777 29.1467 29.1488C28.5071 28.3198 27.6631 27.6713 26.6974 27.2668C25.7318 26.8622 24.6776 26.7155 23.6381 26.841H23.6394Z" fill="#1E3A3D"/>
</svg>
