<svg width="55" height="72" viewBox="0 0 55 72" fill="none" xmlns="http://www.w3.org/2000/svg">
<rect width="55" height="72" rx="6" fill="#D1DDD3"/>
<path d="M35.7494 32.1943H33.2111M33.2111 32.1943H30.6729M33.2111 32.1943V29.656M33.2111 32.1943V34.7325" stroke="#1E3A3D" stroke-width="1.5" stroke-linecap="round"/>
<path d="M27.5001 27.8463L26.8046 28.4961C26.8937 28.5914 27.0014 28.6673 27.121 28.7193C27.2406 28.7712 27.3697 28.798 27.5001 28.798C27.6305 28.798 27.7596 28.7712 27.8792 28.7193C27.9988 28.6673 28.1065 28.5914 28.1956 28.4961L27.5001 27.8463ZM15.6363 38.1364C15.6991 38.247 15.7834 38.344 15.8843 38.4215C15.9852 38.499 16.1006 38.5554 16.2237 38.5876C16.3468 38.6197 16.4751 38.6268 16.601 38.6085C16.7269 38.5902 16.8478 38.5469 16.9567 38.481C17.0656 38.4152 17.1601 38.3282 17.2348 38.2252C17.3094 38.1222 17.3627 38.0052 17.3914 37.8813C17.4201 37.7574 17.4237 37.6289 17.4019 37.5036C17.3801 37.3782 17.3334 37.2585 17.2646 37.1515L15.6363 38.1364ZM20.5668 41.2952C20.4808 41.201 20.3767 41.1249 20.2608 41.0717C20.1448 41.0184 20.0193 40.989 19.8917 40.9853C19.7642 40.9815 19.6371 41.0034 19.5182 41.0497C19.3993 41.096 19.2909 41.1658 19.1995 41.2548C19.108 41.3438 19.0355 41.4504 18.986 41.568C18.9366 41.6857 18.9113 41.8121 18.9117 41.9397C18.9121 42.0673 18.9382 42.1936 18.9884 42.3109C19.0385 42.4282 19.1118 42.5343 19.2038 42.6228L20.5668 41.2952ZM15.7606 32.5979C15.7606 28.9111 17.3699 26.633 19.3599 25.8525C21.3461 25.0745 24.1242 25.6304 26.8046 28.4961L28.1956 27.1965C25.1649 23.9551 21.5974 22.9322 18.6657 24.0795C15.7378 25.2268 13.8569 28.3768 13.8569 32.5979H15.7606ZM31.9548 46.104C33.8496 44.5671 36.1188 42.5073 37.9235 40.2063C39.7091 37.9295 41.1433 35.2834 41.1433 32.5953H39.2396C39.2396 34.6412 38.1227 36.8647 36.4246 39.0311C34.7443 41.1747 32.5969 43.1329 30.7567 44.6254L31.9548 46.104ZM41.1433 32.5953C41.1433 28.3755 39.2624 25.2255 36.3333 24.0795C33.4016 22.9309 29.8353 23.9526 26.8046 27.1952L28.1956 28.4961C30.876 25.6304 33.6541 25.0732 35.6403 25.8512C37.6303 26.6304 39.2396 28.9098 39.2396 32.5953H41.1433ZM23.0454 46.1053C24.6572 47.415 25.7766 48.3757 27.5001 48.3757V46.472C26.5825 46.472 26.0114 46.0608 24.2435 44.6267L23.0454 46.1053ZM30.7567 44.6254C28.9888 46.0596 28.4177 46.472 27.5001 46.472V48.3757C29.2236 48.3757 30.3442 47.415 31.956 46.1053L30.7567 44.6254ZM17.2658 37.1515C16.3152 35.5829 15.7606 34.0409 15.7606 32.5979H13.8569C13.8569 34.5168 14.588 36.4053 15.6363 38.1364L17.2658 37.1515ZM24.2435 44.6267C22.9548 43.5879 21.7272 42.4756 20.5668 41.2952L19.2038 42.6228C20.4157 43.8566 21.6993 45.0194 23.0454 46.1053L24.2435 44.6267Z" fill="#1E3A3D"/>
</svg>
