<svg width="55" height="72" viewBox="0 0 55 72" fill="none" xmlns="http://www.w3.org/2000/svg">
<rect width="55" height="72" rx="6" fill="#D1DDD3"/>
<path d="M38 43V53H40V49H43V47H40V45H44V43H38Z" fill="#1E3A3D"/>
<path d="M28 43C27.4696 43 26.9609 43.2107 26.5858 43.5858C26.2107 43.9609 26 44.4696 26 45V51C26 51.5304 26.2107 52.0391 26.5858 52.4142C26.9609 52.7893 27.4696 53 28 53H30C30.5304 53 31.0391 52.7893 31.4142 52.4142C31.7893 52.0391 32 51.5304 32 51V50H30V51H28V45H30V46H32V45C32 44.4696 31.7893 43.9609 31.4142 43.5858C31.0391 43.2107 30.5304 43 30 43H28Z" fill="#1E3A3D"/>
<path d="M13 43C12.4696 43 11.9609 43.2107 11.5858 43.5858C11.2107 43.9609 11 44.4696 11 45V53H13V45H15V52H17V45H19V53H21V45C21 44.4696 20.7893 43.9609 20.4142 43.5858C20.0391 43.2107 19.5304 43 19 43H13Z" fill="#1E3A3D"/>
<path d="M32 19V31C32 31.7956 32.3161 32.5587 32.8787 33.1213C33.4413 33.6839 34.2044 34 35 34H38C38.7956 34 39.5587 33.6839 40.1213 33.1213C40.6839 32.5587 41 31.7956 41 31V19H38V31H35V19H32Z" fill="#1E3A3D"/>
<path d="M17 19V22H23L17 31V34H26V31H20L26 22V19H17Z" fill="#1E3A3D"/>
</svg>
