<svg width="55" height="72" viewBox="0 0 55 72" fill="none" xmlns="http://www.w3.org/2000/svg">
<rect width="55" height="72" rx="6" fill="#D1DDD3"/>
<path d="M30.2467 36.5475L32.4458 34.3484M26.9479 33.2488L29.1471 31.0496M23.6492 29.95L25.8484 27.7509M33.5454 39.8463L35.7446 37.6471M37.7238 39.6263C37.9698 39.8715 38.165 40.1628 38.2982 40.4836C38.4314 40.8044 38.5 41.1483 38.5 41.4956C38.5 41.843 38.4314 42.1869 38.2982 42.5076C38.165 42.8284 37.9698 43.1197 37.7238 43.3649L34.8649 46.2238C34.6197 46.4698 34.3284 46.665 34.0076 46.7982C33.6869 46.9314 33.343 47 32.9956 47C32.6483 47 32.3044 46.9314 31.9836 46.7982C31.6628 46.665 31.3715 46.4698 31.1263 46.2238L17.2716 32.3691C16.7774 31.8725 16.5 31.2004 16.5 30.4998C16.5 29.7992 16.7774 29.1271 17.2716 28.6305L20.1305 25.7716C20.6271 25.2774 21.2992 25 21.9998 25C22.7004 25 23.3725 25.2774 23.8691 25.7716L37.7238 39.6263Z" stroke="#1E3A3D" stroke-width="2" stroke-linecap="round" stroke-linejoin="round"/>
</svg>
