<svg width="55" height="72" viewBox="0 0 55 72" fill="none" xmlns="http://www.w3.org/2000/svg">
<rect width="55" height="72" rx="6" fill="#D1DDD3"/>
<path d="M33.125 22.875C33.6223 22.875 34.0992 23.0725 34.4508 23.4242C34.8025 23.7758 35 24.2527 35 24.75V47.25C35 47.7473 34.8025 48.2242 34.4508 48.5758C34.0992 48.9275 33.6223 49.125 33.125 49.125H21.875C21.3777 49.125 20.9008 48.9275 20.5492 48.5758C20.1975 48.2242 20 47.7473 20 47.25V24.75C20 24.2527 20.1975 23.7758 20.5492 23.4242C20.9008 23.0725 21.3777 22.875 21.875 22.875H33.125ZM21.875 21C20.8804 21 19.9266 21.3951 19.2233 22.0983C18.5201 22.8016 18.125 23.7554 18.125 24.75V47.25C18.125 48.2446 18.5201 49.1984 19.2233 49.9016C19.9266 50.6049 20.8804 51 21.875 51H33.125C34.1196 51 35.0734 50.6049 35.7766 49.9016C36.4799 49.1984 36.875 48.2446 36.875 47.25V24.75C36.875 23.7554 36.4799 22.8016 35.7766 22.0983C35.0734 21.3951 34.1196 21 33.125 21H21.875Z" fill="#1E3A3D"/>
<path d="M27.5 47.25C27.9973 47.25 28.4742 47.0525 28.8258 46.7008C29.1775 46.3492 29.375 45.8723 29.375 45.375C29.375 44.8777 29.1775 44.4008 28.8258 44.0492C28.4742 43.6975 27.9973 43.5 27.5 43.5C27.0027 43.5 26.5258 43.6975 26.1742 44.0492C25.8225 44.4008 25.625 44.8777 25.625 45.375C25.625 45.8723 25.8225 46.3492 26.1742 46.7008C26.5258 47.0525 27.0027 47.25 27.5 47.25Z" fill="#1E3A3D"/>
</svg>
