<svg width="55" height="72" viewBox="0 0 55 72" fill="none" xmlns="http://www.w3.org/2000/svg">
<rect width="55" height="72" rx="6" fill="#D1DDD3"/>
<path d="M29.4796 39.3377C29.6576 38.102 30.1775 36.9406 30.9808 35.9848C31.784 35.029 32.8386 34.317 34.0253 33.929C35.212 33.5411 36.4835 33.4927 37.6962 33.7895C38.909 34.0862 40.0145 34.7162 40.888 35.6082V30.7312C40.888 28.681 39.6487 27.4416 36.8755 26.887C36.6342 26.83 36.4245 26.6816 36.2905 26.473C36.1566 26.2643 36.1089 26.0118 36.1575 25.7687C36.2061 25.5256 36.3472 25.3109 36.5511 25.1699C36.755 25.0288 37.0057 24.9724 37.2504 25.0127C40.8517 25.7318 42.8006 27.6807 42.8006 30.7312V38.8596C42.8006 38.9973 42.7732 39.1261 42.7183 39.2459C42.7732 39.5889 42.8006 39.9383 42.8006 40.294C42.8036 41.9884 42.164 43.621 41.0106 44.8624C39.8573 46.1037 38.2761 46.8615 36.586 46.9828C34.8959 47.1041 33.2226 46.58 31.9038 45.5161C30.585 44.4522 29.7187 42.9278 29.4796 41.2503H25.5207C25.2549 43.0058 24.3026 44.5839 22.8732 45.6373C21.4439 46.6908 19.6547 47.1332 17.8991 46.8674C16.1436 46.6016 14.5655 45.6493 13.5121 44.22C12.4586 42.7907 12.0162 41.0015 12.2819 39.2459C12.2279 39.1243 12.1999 38.9927 12.1997 38.8596V30.7312C12.1997 27.6807 14.1486 25.7318 17.7499 25.0127C17.9946 24.9724 18.2453 25.0288 18.4492 25.1699C18.6531 25.3109 18.7942 25.5256 18.8428 25.7687C18.8914 26.0118 18.8437 26.2643 18.7098 26.473C18.5758 26.6816 18.3661 26.83 18.1248 26.887C15.3516 27.4416 14.1123 28.681 14.1123 30.7312V35.6082C14.9858 34.7162 16.0913 34.0862 17.304 33.7895C18.5168 33.4927 19.7883 33.5411 20.975 33.929C22.1617 34.317 23.2162 35.029 24.0195 35.9848C24.8228 36.9406 25.3427 38.102 25.5207 39.3377H29.4796ZM18.8936 45.0754C20.1618 45.0754 21.3779 44.5716 22.2746 43.6749C23.1713 42.7783 23.675 41.5621 23.675 40.294C23.675 39.0259 23.1713 37.8097 22.2746 36.913C21.3779 36.0164 20.1618 35.5126 18.8936 35.5126C17.6255 35.5126 16.4094 36.0164 15.5127 36.913C14.616 37.8097 14.1123 39.0259 14.1123 40.294C14.1123 41.5621 14.616 42.7783 15.5127 43.6749C16.4094 44.5716 17.6255 45.0754 18.8936 45.0754ZM36.1066 45.0754C37.3747 45.0754 38.5909 44.5716 39.4876 43.6749C40.3843 42.7783 40.888 41.5621 40.888 40.294C40.888 39.0259 40.3843 37.8097 39.4876 36.913C38.5909 36.0164 37.3747 35.5126 36.1066 35.5126C34.8385 35.5126 33.6224 36.0164 32.7257 36.913C31.829 37.8097 31.3253 39.0259 31.3253 40.294C31.3253 41.5621 31.829 42.7783 32.7257 43.6749C33.6224 44.5716 34.8385 45.0754 36.1066 45.0754Z" fill="#1E3A3D"/>
</svg>
