<svg width="55" height="72" viewBox="0 0 55 72" fill="none" xmlns="http://www.w3.org/2000/svg">
<rect width="55" height="72" rx="6" fill="#D1DDD3"/>
<path d="M29.6465 47L26.6417 43.2439H21.0612C20.7765 43.2439 20.5036 43.1308 20.3023 42.9296C20.1011 42.7283 19.988 42.4554 19.988 42.1707V30.4764C19.988 30.1918 20.1011 29.9188 20.3023 29.7175C20.5036 29.5163 20.7765 29.4032 21.0612 29.4032H38.2319C38.5165 29.4032 38.7895 29.5163 38.9907 29.7175C39.192 29.9188 39.3051 30.1918 39.3051 30.4764V42.1707C39.3051 42.4554 39.192 42.7283 38.9907 42.9296C38.7895 43.1308 38.5165 43.2439 38.2319 43.2439H32.6514L29.6465 47ZM31.6201 41.0976H37.1587V31.5496H22.1343V41.0976H27.673L29.6465 43.5637L31.6201 41.0976ZM16.7685 25H35.0124V27.1463H17.8417V38.9512H15.6953V26.0732C15.6953 25.7885 15.8084 25.5156 16.0096 25.3143C16.2109 25.1131 16.4839 25 16.7685 25Z" fill="#1E3A3D"/>
</svg>
